<svg width="128" height="40" viewBox="0 0 128 40" fill="none" xmlns="http://www.w3.org/2000/svg">
<g clip-path="url(#clip0_912_282)">
<path d="M15.9689 14.2727V18.5455H26.2802C26.0064 20.9091 25.1852 22.7273 23.9077 23.9091C22.4476 25.3636 20.0751 27 15.9689 27C9.67256 27 4.74503 21.9091 4.74503 15.6364C4.74503 9.36364 9.58131 4.27273 15.9689 4.27273C19.3451 4.27273 21.9001 5.63636 23.7252 7.36364L26.7364 4.36364C24.1814 1.90909 20.7139 0 15.9689 0C7.30005 0 0 7 0 15.6364C0 24.2727 7.30005 31.2727 15.9689 31.2727C20.6226 31.2727 24.1814 29.7273 26.9189 26.9091C29.7477 24.0909 30.6602 20.0909 30.6602 16.9091C30.6602 15.9091 30.569 15 30.4777 14.2727H15.9689V14.2727Z" fill="#C4C4C4"/>
<path d="M43.4349 10.7266C37.8686 10.7266 33.2148 14.9993 33.2148 20.8175C33.2148 26.6357 37.7774 30.9084 43.4349 30.9084C49.0924 30.9084 53.655 26.7266 53.655 20.9084C53.655 14.9993 49.0924 10.7266 43.4349 10.7266ZM43.4349 26.9993C40.3324 26.9993 37.6861 24.4538 37.6861 20.9084C37.6861 17.272 40.3324 14.8175 43.4349 14.8175C46.5374 14.8175 49.1837 17.272 49.1837 20.9084C49.1837 24.4538 46.5374 26.9993 43.4349 26.9993Z" fill="#C4C4C4"/>
<path d="M93.3493 12.9993H93.1668C92.1631 11.8175 90.2468 10.7266 87.783 10.7266C82.673 10.7266 78.293 15.0902 78.293 20.8175C78.293 26.4538 82.673 30.9084 87.783 30.9084C90.2468 30.9084 92.1631 29.8175 93.1668 28.6357H93.3493V30.0902C93.3493 33.9084 91.2506 35.9993 87.9655 35.9993C85.228 35.9993 83.5855 34.0902 82.8555 32.3629L79.023 33.9993C80.118 36.6357 83.1292 39.9993 88.0568 39.9993C93.2581 39.9993 97.7293 36.9084 97.7293 29.4538V11.272H93.5318V12.9993H93.3493ZM88.2393 26.9993C85.1368 26.9993 82.8555 24.3629 82.8555 20.9084C82.8555 17.3629 85.228 14.8175 88.2393 14.8175C91.2505 14.8175 93.6231 17.4538 93.6231 20.9993C93.7143 24.4538 91.3418 26.9993 88.2393 26.9993Z" fill="#C4C4C4"/>
<path d="M66.1566 10.7266C60.5903 10.7266 55.9365 14.9993 55.9365 20.8175C55.9365 26.6357 60.4991 30.9084 66.1566 30.9084C71.8141 30.9084 76.3767 26.7266 76.3767 20.9084C76.3767 14.9993 71.8141 10.7266 66.1566 10.7266ZM66.1566 26.9993C63.0541 26.9993 60.4078 24.4538 60.4078 20.9084C60.4078 17.272 63.0541 14.8175 66.1566 14.8175C69.2591 14.8175 71.9054 17.272 71.9054 20.9084C71.9054 24.4538 69.2591 26.9993 66.1566 26.9993Z" fill="#C4C4C4"/>
<path d="M101.105 0.453125H105.485V30.9986H101.105V0.453125Z" fill="#C4C4C4"/>
<path d="M118.991 26.9993C116.709 26.9993 115.158 25.9993 114.063 23.9084L127.659 18.3629L127.203 17.1811C126.382 14.9084 123.736 10.7266 118.534 10.7266C113.333 10.7266 108.953 14.8175 108.953 20.8175C108.953 26.4538 113.242 30.9084 118.991 30.9084C123.644 30.9084 126.291 28.0902 127.477 26.4538L124.009 24.1811C122.823 25.9084 121.272 26.9993 118.991 26.9993ZM118.717 14.5447C120.542 14.5447 122.093 15.4538 122.549 16.7266L113.424 20.5447C113.333 16.3629 116.436 14.5447 118.717 14.5447Z" fill="#C4C4C4"/>
</g>
<defs>
<clipPath id="clip0_912_282">
<rect width="127.66" height="40" fill="white"/>
</clipPath>
</defs>
</svg>
