<svg width="143" height="40" viewBox="0 0 143 40" fill="none" xmlns="http://www.w3.org/2000/svg">
<g clip-path="url(#clip0_912_446)">
<path fill-rule="evenodd" clip-rule="evenodd" d="M39.4213 0.0176372C39.4692 -0.0116485 39.5306 -0.00379134 39.5699 0.0362087C39.6149 0.0833515 39.6127 0.157637 39.5656 0.202637C37.837 1.90121 33.7385 5.85978 31.4499 7.62835C31.1335 7.87407 28.9827 14.1148 27.2985 17.8484C25.8699 21.0155 23.6363 22.8698 17.8377 26.0355C13.8285 28.2205 11.1749 36.4498 7.40917 39.5405C7.37132 39.5691 7.32132 39.5762 7.27774 39.5583C7.2106 39.5298 7.17774 39.4533 7.20631 39.3862L15.5642 20.5955C14.6899 20.5148 12.3713 18.4434 9.77346 15.8476C9.75917 15.8326 9.75346 15.8105 9.75917 15.7905C9.76846 15.7591 9.80203 15.7412 9.83274 15.7505L21.497 19.5755C21.5013 19.5762 21.5063 19.5755 21.5099 19.5734C21.5185 19.5684 21.522 19.5576 21.517 19.5491L20.722 18.2062C20.6599 18.1019 20.5627 18.0241 20.4485 17.9862L7.91132 13.8755C7.83989 13.8519 7.77631 13.8112 7.72489 13.7584C7.30346 13.3212 6.88632 12.8834 6.47274 12.4455C6.46417 12.4369 6.46203 12.4241 6.4656 12.4126C6.47131 12.3955 6.48989 12.3869 6.50703 12.3926L19.8249 16.7612C19.8306 16.7634 19.8363 16.7626 19.8413 16.7598C19.8499 16.7548 19.8527 16.7434 19.8477 16.7348L19.0356 15.3491C18.9906 15.2726 18.9177 15.2162 18.8335 15.1905L4.93132 10.6312C4.78774 10.5841 4.65846 10.5012 4.5556 10.3898C4.1806 9.98406 3.81774 9.58835 3.4706 9.20692C3.45846 9.19549 3.4556 9.17835 3.46203 9.16407C3.4706 9.14407 3.49346 9.13549 3.51274 9.14407L18.1427 13.9469C18.1477 13.9491 18.1542 13.9484 18.1585 13.9455C18.167 13.9405 18.1699 13.9291 18.1649 13.9205L17.3535 12.5391C17.3077 12.4605 17.2356 12.4019 17.1506 12.3726L2.15346 7.45407L1.89417 7.36478C1.80346 7.33407 1.72274 7.27978 1.65846 7.20835C0.812744 6.26907 0.284887 5.67264 0.0213151 5.37264C0.00131512 5.34907 -0.00511345 5.31692 0.00417227 5.28764C0.0198866 5.24192 0.068458 5.21692 0.114172 5.23264C2.68703 6.08049 20.7927 12.0569 22.212 12.5105C22.212 12.5105 19.8749 5.51049 30.5049 5.51049C30.8406 5.51049 37.0092 1.56764 39.422 0.0176372H39.4213ZM109.908 12.6484C113.962 12.6484 116.21 15.2312 116.21 18.5912C116.21 23.4805 112.963 26.9098 108.297 26.9098C104.239 26.9098 101.995 24.3269 101.995 20.9669C101.995 16.0569 105.241 12.6484 109.908 12.6484ZM142.603 12.9305C142.715 12.9269 142.808 13.0162 142.811 13.1276C142.811 13.1455 142.81 13.1634 142.806 13.1798L142.445 15.1798C142.431 15.2812 142.343 15.3555 142.242 15.3548H135.731C135.63 15.3584 135.545 15.4319 135.528 15.5312L135.039 18.3026C135.013 18.4119 135.081 18.5212 135.189 18.5476C135.208 18.5519 135.228 18.5534 135.248 18.5526H141.162C141.274 18.5498 141.368 18.6384 141.371 18.7498C141.371 18.7676 141.369 18.7855 141.365 18.8019L141.011 20.7984C140.996 20.8991 140.909 20.9741 140.807 20.9734H134.736C134.636 20.9762 134.551 21.0505 134.533 21.1498L134.051 23.9455C134.026 24.0548 134.095 24.1633 134.204 24.1883C134.221 24.1919 134.237 24.1933 134.254 24.1933H140.805C140.917 24.1898 141.011 24.2791 141.013 24.3905C141.013 24.4076 141.012 24.4262 141.008 24.4426L140.647 26.4712C140.633 26.5726 140.546 26.6469 140.444 26.6462H130.717C130.605 26.6491 130.512 26.5605 130.509 26.4483C130.508 26.4312 130.51 26.4134 130.514 26.3962L132.864 13.1048C132.878 13.0041 132.965 12.9291 133.067 12.9305H142.603ZM121.092 12.9262C121.197 12.9262 121.285 13.0062 121.295 13.1112L122.671 23.5376C122.653 23.6498 122.728 23.7548 122.841 23.7733C122.953 23.7912 123.058 23.7148 123.076 23.6026L128.233 13.0526C128.269 12.9791 128.343 12.9326 128.424 12.9319H131.279C131.391 12.9234 131.488 13.0062 131.498 13.1184C131.501 13.1626 131.491 13.2076 131.466 13.2448L124.419 26.5305C124.384 26.6005 124.311 26.6441 124.233 26.6419H120.463C120.358 26.6462 120.267 26.5698 120.254 26.4655L117.943 13.1741C117.918 13.0648 117.987 12.9562 118.096 12.9312C118.112 12.9276 118.129 12.9262 118.146 12.9262H121.092ZM90.8456 12.9141C90.9585 12.9141 91.0492 13.0048 91.0492 13.1169L91.692 22.4219C91.7042 22.5391 91.8085 22.6241 91.9256 22.6126C92.0006 22.6048 92.0663 22.5576 92.0977 22.4891L95.912 13.0584C95.9435 12.9741 96.0263 12.9205 96.1156 12.9262H100.908C101.02 12.9234 101.113 13.0119 101.116 13.1241C101.116 13.1412 101.114 13.1584 101.111 13.1762L98.7592 26.4676C98.7449 26.5683 98.6577 26.6433 98.5556 26.6419H95.8677C95.7556 26.6455 95.6628 26.5562 95.6592 26.4448C95.6592 26.4269 95.6606 26.4091 95.6649 26.3926L97.1992 17.8712C97.232 17.7591 97.1685 17.6405 97.0563 17.6069C96.9449 17.5734 96.8263 17.6369 96.7927 17.7491L93.0285 26.5083C92.997 26.5905 92.9142 26.6419 92.8263 26.6362H89.5092C89.397 26.6362 89.3056 26.5455 89.3056 26.4333L88.6342 17.6741C88.6399 17.5584 88.5506 17.4598 88.4342 17.4541C88.3185 17.4484 88.2199 17.5376 88.2142 17.6541L86.6863 26.4541C86.6735 26.5548 86.5863 26.6305 86.4835 26.6298H83.8013C83.6842 26.6262 83.5913 26.5276 83.5956 26.4098L83.5985 26.3805L85.9499 13.0884C85.9642 12.9884 86.0513 12.9126 86.1527 12.9141H90.8456ZM54.4299 12.9262C54.5327 12.9255 54.6192 13.0012 54.6327 13.1026L56.942 26.3905C56.9456 26.4069 56.947 26.4233 56.947 26.4405C56.9442 26.5519 56.8506 26.6405 56.7392 26.6383H53.797C53.6942 26.6341 53.6085 26.5569 53.5942 26.4555L53.0906 22.9433C53.0756 22.8419 52.9906 22.7662 52.8877 22.7626H49.857C49.8099 22.7626 49.7635 22.7519 49.7213 22.7312C49.5742 22.6569 49.5149 22.4776 49.5892 22.3312L50.5077 20.4819C50.5592 20.3812 50.6627 20.3176 50.7756 20.3176H52.4499L52.4727 20.3155C52.5892 20.2984 52.6692 20.1905 52.6527 20.0741L52.127 16.4219C52.1449 16.3098 52.0685 16.2048 51.957 16.1862C51.8449 16.1691 51.7392 16.2448 51.7213 16.3576L50.3356 19.1062L50.177 19.4269L49.8849 20.0091V20.0198L46.852 26.1184L46.6492 26.5241C46.6149 26.5976 46.5406 26.6441 46.4606 26.6419H43.6056C43.5706 26.6419 43.5363 26.6333 43.5056 26.6176C43.4013 26.5626 43.362 26.4333 43.417 26.3298L50.467 13.0376C50.5027 12.9662 50.577 12.9234 50.6563 12.9262H54.4299ZM79.857 12.9262C79.9577 12.9298 80.0427 13.0034 80.0599 13.1026L82.3585 26.3948C82.3627 26.4105 82.3642 26.4276 82.3635 26.4448C82.3606 26.5562 82.2677 26.6448 82.1563 26.6419H79.212C79.107 26.6426 79.0192 26.5633 79.0092 26.4598L78.5035 22.9469C78.492 22.8441 78.4049 22.7662 78.3006 22.7669H75.2577C75.2099 22.7669 75.1627 22.7548 75.1206 22.7326C74.9742 22.6569 74.9177 22.4762 74.9935 22.3305L75.9127 20.4819C75.9627 20.3819 76.0656 20.3176 76.1785 20.3176H77.8527L77.8756 20.3155C77.9913 20.2984 78.0727 20.1905 78.0556 20.0741L77.5299 16.4219C77.5477 16.3098 77.472 16.2048 77.3592 16.1862C77.247 16.1691 77.142 16.2448 77.1235 16.3576L75.9942 18.6176L75.712 19.1834L75.3063 20.0134V20.0276L72.522 25.6276L72.0763 26.5241C72.042 26.5983 71.967 26.6448 71.8856 26.6419H69.0306C68.9863 26.6455 68.9413 26.6348 68.9042 26.6098C68.8099 26.5491 68.7827 26.4241 68.8435 26.3298L75.8927 13.0376C75.9299 12.9691 76.0027 12.9262 76.0813 12.9262H79.857ZM63.3942 12.9262C63.5063 12.9234 63.5992 13.0119 63.602 13.1234C63.602 13.1412 63.6013 13.1591 63.597 13.1762L61.7185 23.7691C61.692 23.8783 61.7599 23.9876 61.8685 24.0133C61.8856 24.0176 61.9035 24.0191 61.9206 24.0183H68.3913C68.5035 24.0098 68.6013 24.0926 68.6099 24.2041C68.6135 24.2491 68.6027 24.2933 68.5785 24.3312L67.4113 26.5312C67.3777 26.5969 67.3113 26.6398 67.237 26.6419H58.3742C58.262 26.6448 58.1692 26.5562 58.1663 26.4448C58.1663 26.4269 58.1677 26.4091 58.1713 26.3926L60.5213 13.1005C60.5356 13.0005 60.622 12.9255 60.7242 12.9262H63.3942ZM37.957 12.9262C38.0685 12.9234 38.162 13.0119 38.1649 13.1234C38.1656 13.1412 38.1635 13.1591 38.1599 13.1762L36.3013 23.7691C36.2756 23.8783 36.3427 23.9876 36.452 24.0133C36.4692 24.0176 36.4863 24.0191 36.5042 24.0183H42.9749C43.0863 24.0098 43.1842 24.0926 43.1927 24.2041C43.1963 24.2491 43.1856 24.2933 43.1613 24.3312L41.9942 26.5312C41.9592 26.5998 41.8877 26.6433 41.8099 26.6419H32.9499C32.8377 26.6448 32.7449 26.5562 32.7413 26.4448C32.7413 26.4269 32.7435 26.4091 32.747 26.3926L35.0849 13.1005C35.0992 13.0005 35.1856 12.9255 35.2877 12.9262H37.957ZM109.728 14.9534C106.706 14.9534 105.296 18.1998 105.296 20.8984C105.296 23.0834 106.408 24.6155 108.476 24.6155C111.478 24.6155 112.909 21.3748 112.909 18.6705C112.909 16.4648 111.795 14.9534 109.728 14.9534Z" fill="#C4C4C4"/>
</g>
<defs>
<clipPath id="clip0_912_446">
<rect width="142.857" height="40" fill="white"/>
</clipPath>
</defs>
</svg>
