<svg width="122" height="40" viewBox="0 0 122 40" fill="none" xmlns="http://www.w3.org/2000/svg">
<g clip-path="url(#clip0_912_421)">
<path fill-rule="evenodd" clip-rule="evenodd" d="M57.6494 31.9495H67.8952C69.3526 31.9495 70.5446 30.7572 70.5446 29.2998V29.0787C70.5446 27.6213 69.3526 26.4293 67.8952 26.4293H60.5199V9.64942C60.5199 8.19202 59.3278 7 57.8704 7H57.6494C56.192 7 55 8.19202 55 9.64942V29.2998C55 30.7572 56.192 31.9495 57.6494 31.9495ZM121.138 19.632V19.411C121.138 17.9536 119.945 16.7616 118.488 16.7616H111.113V12.5668H118.488C119.945 12.5668 121.138 11.3748 121.138 9.91737V9.69634C121.138 8.23894 119.945 7.04692 118.488 7.04692H108.242C106.785 7.04692 105.593 8.23894 105.593 9.69634V29.3467C105.593 30.8041 106.785 31.9965 108.242 31.9965H118.488C119.945 31.9965 121.138 30.8041 121.138 29.3467V29.1256C121.138 27.6682 119.945 26.4762 118.488 26.4762H111.113V22.2814H118.488C119.945 22.2814 121.138 21.0894 121.138 19.632ZM101.434 31.1596L101.434 31.1585C101.925 30.6642 102.2 29.9963 102.201 29.3001V9.64942C102.201 8.19202 101.009 7 99.5508 7H99.3297C97.8723 7 96.6803 8.19202 96.6803 9.64942V21.1844L87.1042 8.33974C86.6468 7.54139 85.7854 7 84.8037 7H84.5827C83.1253 7 81.9329 8.19202 81.9329 9.64942V29.2998C81.9329 30.7572 83.125 31.9495 84.5827 31.9495H84.8037C86.2611 31.9495 87.4532 30.7572 87.4532 29.2998V17.5493L97.0985 30.7234C97.1579 30.8158 97.2228 30.9045 97.2928 30.9888L97.2932 30.9895C97.5582 31.351 97.9207 31.5988 98.3246 31.7501C98.6351 31.8784 98.9745 31.9495 99.3297 31.9495H99.5508C99.9825 31.9498 100.408 31.8435 100.789 31.6402C101.053 31.5137 101.276 31.3513 101.434 31.1596ZM75.3325 31.9495H75.5535C77.0109 31.9495 78.2029 30.7572 78.2029 29.2998V9.64942C78.2026 8.19202 77.0105 7 75.5531 7H75.3325C73.8751 7 72.6827 8.19202 72.6827 9.64942V29.2998C72.6827 30.7572 73.8751 31.9495 75.3325 31.9495Z" fill="#C4C4C4"/>
</g>
<path fill-rule="evenodd" clip-rule="evenodd" d="M8 0C3.58172 0 0 3.58172 0 8V32C0 36.4183 3.58172 40 8 40H32C36.4183 40 40 36.4183 40 32V8C40 3.58172 36.4183 0 32 0H8ZM19.9999 8.1812C27.3523 8.1812 33.3333 13.0351 33.3333 19.0013C33.3333 21.3892 32.4078 23.5395 30.4755 25.6585H30.476C27.6787 28.8783 21.4231 32.8 19.9999 33.3996C18.6169 33.9825 18.7766 33.0715 18.8399 32.7105L18.8451 32.6809C18.8788 32.4805 19.0352 31.5396 19.0352 31.5396C19.0802 31.1992 19.1267 30.6711 18.9923 30.3339C18.8428 29.9628 18.2518 29.7701 17.8175 29.6765C11.4101 28.8295 6.66667 24.35 6.66667 19.0013C6.66667 13.0351 12.6485 8.1812 19.9999 8.1812ZM16.3557 16.1182H17.2909C17.4343 16.1182 17.5506 16.2345 17.5506 16.3774V22.1872C17.5506 22.3304 17.4343 22.4464 17.2909 22.4464H16.3557C16.2123 22.4464 16.0957 22.3304 16.0957 22.1872V16.3774C16.0957 16.2345 16.2123 16.1182 16.3557 16.1182ZM23.7282 16.1182H22.793C22.6496 16.1182 22.5333 16.2345 22.5333 16.3774V19.829L19.8709 16.2335C19.8648 16.2243 19.8579 16.2156 19.8507 16.2072L19.8489 16.2056C19.8438 16.1998 19.8387 16.1946 19.8334 16.1895L19.8285 16.1852C19.8241 16.1811 19.8195 16.1773 19.8147 16.1737L19.8134 16.1725L19.8099 16.1697L19.808 16.1683L19.8028 16.1647C19.8 16.1628 19.7973 16.1608 19.7945 16.1591C19.7919 16.1573 19.7894 16.1558 19.7866 16.1545L19.7866 16.1545C19.782 16.1517 19.7774 16.1489 19.7728 16.1466C19.77 16.1453 19.7674 16.1438 19.7646 16.1428L19.7645 16.1427C19.7597 16.1404 19.7549 16.1381 19.7498 16.1364L19.7413 16.1333C19.7383 16.1322 19.7352 16.1311 19.7321 16.1302C19.73 16.1295 19.7279 16.129 19.7257 16.1284C19.7243 16.1279 19.7227 16.1275 19.7211 16.1271C19.7197 16.1267 19.7182 16.1264 19.7168 16.1259L19.702 16.1226C19.6984 16.1221 19.6946 16.1215 19.691 16.1213C19.6876 16.1205 19.6841 16.1202 19.6807 16.1199L19.6806 16.1198L19.6772 16.1195C19.6742 16.1191 19.6713 16.119 19.6683 16.1189C19.6668 16.1189 19.6654 16.1188 19.6639 16.1187L19.6593 16.1185L19.6547 16.1182H18.7197C18.5763 16.1182 18.4597 16.2345 18.4597 16.3774V22.1872C18.4597 22.3304 18.5763 22.4464 18.7197 22.4464H19.6547C19.7983 22.4464 19.9146 22.3304 19.9146 22.1872V18.7366L22.5803 22.3367C22.5987 22.3628 22.6215 22.384 22.6462 22.4009L22.6488 22.403L22.6536 22.4059L22.6649 22.4127L22.6704 22.4156L22.6723 22.4165C22.6762 22.4188 22.6805 22.4208 22.6846 22.4226C22.6863 22.4233 22.688 22.4241 22.6896 22.4248C22.6921 22.4259 22.6946 22.4269 22.6974 22.428L22.6974 22.428L22.6974 22.428C22.7 22.429 22.7025 22.43 22.705 22.4308C22.7112 22.4331 22.7168 22.4349 22.7227 22.4367C22.7239 22.4367 22.7252 22.4372 22.7265 22.4375C22.7477 22.4431 22.77 22.4464 22.793 22.4464H23.7282C23.8719 22.4464 23.9879 22.3304 23.9879 22.1872V16.3774C23.9879 16.2345 23.8719 16.1182 23.7282 16.1182ZM12.4953 20.9916H15.0365C15.1799 20.9916 15.2956 21.1079 15.2956 21.2513V22.1866C15.2956 22.33 15.1799 22.4465 15.0365 22.4465H11.3003H11.3001C11.2303 22.4465 11.1674 22.4189 11.1206 22.3739L11.1168 22.3704C11.1153 22.3691 11.1143 22.3678 11.1132 22.3665C11.0685 22.32 11.0406 22.2569 11.0406 22.1871V22.1866V16.3778C11.0406 16.2344 11.1569 16.1181 11.3003 16.1181H12.2358C12.379 16.1181 12.4953 16.2344 12.4953 16.3778V20.9916ZM28.893 17.5729C29.0364 17.5729 29.1521 17.4569 29.1521 17.3133V16.378C29.1521 16.2346 29.0364 16.1181 28.893 16.1181H25.1568H25.1563C25.0863 16.1181 25.0232 16.1462 24.9764 16.1914L24.9751 16.1926C24.9744 16.1931 24.9738 16.1936 24.9733 16.1942C24.9718 16.1958 24.9705 16.1973 24.9692 16.1988C24.9247 16.2454 24.8971 16.3082 24.8971 16.3778V16.378V22.1868V22.1871C24.8971 22.2568 24.925 22.32 24.9697 22.3665C24.9708 22.3678 24.972 22.3693 24.9733 22.3703C24.9743 22.3716 24.9759 22.3729 24.9771 22.3739C25.0237 22.4186 25.0868 22.4465 25.1563 22.4465H25.1568H28.893C29.0364 22.4465 29.1521 22.33 29.1521 22.1868V21.2513C29.1521 21.1082 29.0364 20.9916 28.893 20.9916H26.352V20.0096H28.893C29.0364 20.0096 29.1521 19.8933 29.1521 19.7499V18.8147C29.1521 18.6713 29.0364 18.5547 28.893 18.5547H26.352V17.5729H28.893Z" fill="#C4C4C4"/>
<defs>
<clipPath id="clip0_912_421">
<rect width="66.1376" height="25" fill="white" transform="translate(55 7)"/>
</clipPath>
</defs>
</svg>
