<svg width="158" height="40" viewBox="0 0 158 40" fill="none" xmlns="http://www.w3.org/2000/svg">
<path fill-rule="evenodd" clip-rule="evenodd" d="M16.3631 0.0231704C14.8044 0.173561 13.3797 0.583018 11.9966 1.27805C6.49299 4.04376 2.08673 11.16 0.559986 19.7486C0.283035 21.3066 0.129088 22.641 0.0339227 24.308C-0.0325043 25.4719 0.00325016 27.8071 0.100934 28.6812C0.506737 32.3127 1.64333 35.0743 3.54196 37.0419C4.64846 38.1886 5.88134 38.9686 7.36315 39.4595C8.51728 39.8419 9.55857 40 10.9212 39.9999C13.5346 39.9996 15.4473 39.3351 17.4703 37.7246C18.415 36.9725 19.8582 35.4299 20.9209 34.0362C22.8052 31.565 24.0262 29.5876 27.9415 22.6668L30.0965 18.8574L30.5648 19.6293C31.1724 20.6308 33.339 24.2478 34.6527 26.4537C37.9365 31.9674 39.8424 34.6573 41.893 36.6722C43.9337 38.6773 45.8313 39.638 48.3333 39.9327C49.0029 40.0115 50.3808 40.0218 51.0168 39.9526C52.7475 39.7644 54.2977 39.1728 55.5768 38.2122C56.0083 37.8883 56.8119 37.1085 57.1676 36.6687C58.6276 34.8636 59.6095 32.2751 59.9842 29.2437C60.2683 26.9455 60.2351 24.0512 59.8927 21.2787C58.9027 13.2598 55.4034 6.26429 50.5599 2.6209C47.6542 0.435147 44.3388 -0.426562 41.2407 0.198761C37.9877 0.855359 34.8254 3.28307 31.4554 7.71109C31.2106 8.03285 30.9856 8.32328 30.9555 8.35644C30.9111 8.40545 30.8069 8.30064 30.4015 7.79902C25.9887 2.33924 22.0083 -0.0395146 17.3528 0.00076062C16.895 0.00472064 16.4497 0.0148004 16.3631 0.0231704ZM44.1572 5.27987C45.7303 5.63056 47.1592 6.49199 48.5465 7.92592C49.4847 8.89572 50.2296 9.91628 50.9515 11.2211C52.8663 14.6819 53.9789 18.7707 54.374 23.7987C54.4616 24.9131 54.4484 27.6978 54.3522 28.4112C53.9598 31.3196 52.8787 32.9277 51.0026 33.3935C50.4717 33.5253 49.4729 33.5343 48.9469 33.4121C47.5533 33.0881 46.5724 32.267 44.9081 30.0312C43.6997 28.4079 41.1207 24.3471 38.2202 19.5011C36.0156 15.8176 35.2734 14.6215 34.1623 12.9612L33.8512 12.4964L34.3663 11.7237C36.9908 7.78723 39.2497 5.76835 41.597 5.26146C41.9641 5.18217 42.1415 5.17223 42.9204 5.1873C43.539 5.19923 43.9252 5.22816 44.1572 5.27987ZM18.207 6.61363C19.9697 6.85848 21.4716 7.71496 23.2464 9.48757C24.2976 10.5374 25.3065 11.7563 26.5098 13.4303L27.017 14.1357L26.8689 14.3659C26.7874 14.4925 26.2085 15.3859 25.5824 16.3511C24.0546 18.7068 22.7008 20.8152 21.2196 23.1462C19.6237 25.6576 19.2059 26.2964 18.3054 27.6012C15.7355 31.3249 14.2128 32.8417 12.5708 33.3136C11.3207 33.6729 10.0347 33.5405 9.02513 32.9485C8.65027 32.7286 8.03407 32.1246 7.75204 31.7004C7.13158 30.7674 6.72838 29.5028 6.55267 27.9387C6.47985 27.2906 6.48017 25.1439 6.55325 24.2262C7.05692 17.8985 9.23839 12.1368 12.3351 8.95499C13.7727 7.47804 15.1058 6.74647 16.7229 6.54734C16.9466 6.5198 17.8086 6.55832 18.207 6.61363Z" fill="#C4C4C4"/>
<path fill-rule="evenodd" clip-rule="evenodd" d="M16.3631 0.0231704C14.8044 0.173561 13.3797 0.583018 11.9966 1.27805C6.49299 4.04376 2.08673 11.16 0.559986 19.7486C0.283035 21.3066 0.129088 22.641 0.0339227 24.308C-0.0325043 25.4719 0.00325016 27.8071 0.100934 28.6812C0.506737 32.3127 1.64333 35.0743 3.54196 37.0419C4.64846 38.1886 5.88134 38.9686 7.36315 39.4595C8.51728 39.8419 9.55857 40 10.9212 39.9999C13.5346 39.9996 15.4473 39.3351 17.4703 37.7246C18.415 36.9725 19.8582 35.4299 20.9209 34.0362C22.8052 31.565 24.0262 29.5876 27.9415 22.6668L30.0965 18.8574L30.5648 19.6293C31.1724 20.6308 33.339 24.2478 34.6527 26.4537C37.9365 31.9674 39.8424 34.6573 41.893 36.6722C43.9337 38.6773 45.8313 39.638 48.3333 39.9327C49.0029 40.0115 50.3808 40.0218 51.0168 39.9526C52.7475 39.7644 54.2977 39.1728 55.5768 38.2122C56.0083 37.8883 56.8119 37.1085 57.1676 36.6687C58.6276 34.8636 59.6095 32.2751 59.9842 29.2437C60.2683 26.9455 60.2351 24.0512 59.8927 21.2787C58.9027 13.2598 55.4034 6.26429 50.5599 2.6209C47.6542 0.435147 44.3388 -0.426562 41.2407 0.198761C37.9877 0.855359 34.8254 3.28307 31.4554 7.71109C31.2106 8.03285 30.9856 8.32328 30.9555 8.35644C30.9111 8.40545 30.8069 8.30064 30.4015 7.79902C25.9887 2.33924 22.0083 -0.0395146 17.3528 0.00076062C16.895 0.00472064 16.4497 0.0148004 16.3631 0.0231704ZM44.1572 5.27987C45.7303 5.63056 47.1592 6.49199 48.5465 7.92592C49.4847 8.89572 50.2296 9.91628 50.9515 11.2211C52.8663 14.6819 53.9789 18.7707 54.374 23.7987C54.4616 24.9131 54.4484 27.6978 54.3522 28.4112C53.9598 31.3196 52.8787 32.9277 51.0026 33.3935C50.4717 33.5253 49.4729 33.5343 48.9469 33.4121C47.5533 33.0881 46.5724 32.267 44.9081 30.0312C43.6997 28.4079 41.1207 24.3471 38.2202 19.5011C36.0156 15.8176 35.2734 14.6215 34.1623 12.9612L33.8512 12.4964L34.3663 11.7237C36.9908 7.78723 39.2497 5.76835 41.597 5.26146C41.9641 5.18217 42.1415 5.17223 42.9204 5.1873C43.539 5.19923 43.9252 5.22816 44.1572 5.27987ZM18.207 6.61363C19.9697 6.85848 21.4716 7.71496 23.2464 9.48757C24.2976 10.5374 25.3065 11.7563 26.5098 13.4303L27.017 14.1357L26.8689 14.3659C26.7874 14.4925 26.2085 15.3859 25.5824 16.3511C24.0546 18.7068 22.7008 20.8152 21.2196 23.1462C19.6237 25.6576 19.2059 26.2964 18.3054 27.6012C15.7355 31.3249 14.2128 32.8417 12.5708 33.3136C11.3207 33.6729 10.0347 33.5405 9.02513 32.9485C8.65027 32.7286 8.03407 32.1246 7.75204 31.7004C7.13158 30.7674 6.72838 29.5028 6.55267 27.9387C6.47985 27.2906 6.48017 25.1439 6.55325 24.2262C7.05692 17.8985 9.23839 12.1368 12.3351 8.95499C13.7727 7.47804 15.1058 6.74647 16.7229 6.54734C16.9466 6.5198 17.8086 6.55832 18.207 6.61363Z" fill="#C4C4C4"/>
<path d="M36.5401 16.739C28.9183 4.34325 23.8435 0 17.2963 0L17.2139 6.51288C21.5005 6.51288 24.8245 9.89305 32.053 22.0665L32.4937 22.8076L36.5401 16.739Z" fill="#C4C4C4"/>
<path d="M84.1481 24.9474L75.2392 10H70V34.5615H74.2745V15.737L82.0864 28.7721H86.0954L93.9072 15.737V34.5615H98.1828V10H93.057L84.1481 24.9474ZM116.501 17.0615C115.145 16.2369 113.528 15.8246 111.65 15.8246C109.758 15.8246 108.084 16.2339 106.628 17.0527C105.171 17.8714 104.033 19.0059 103.214 20.4562C102.394 21.9064 101.984 23.5731 101.984 25.4562C101.984 27.3166 102.404 28.9657 103.242 30.4035C104.081 31.8414 105.25 32.9672 106.751 33.7809C108.251 34.5935 109.991 34.9998 111.971 35C115.25 35 118.017 34.041 120.275 32.1229L118.005 29.5439C117.198 30.2572 116.334 30.7893 115.414 31.1402C114.494 31.4911 113.397 31.6665 112.123 31.6665C110.534 31.6665 109.22 31.2368 108.179 30.3772C107.139 29.5176 106.486 28.3392 106.222 26.8419H120.729V25.7544C120.729 23.7543 120.364 22.0116 119.632 20.5264C118.901 19.0412 117.857 17.8862 116.501 17.0615ZM106.222 23.9475C106.474 22.4855 107.076 21.3218 108.028 20.4562C108.98 19.5906 110.162 19.1578 111.575 19.1578C113.025 19.1578 114.197 19.5818 115.093 20.4298C115.988 21.2778 116.499 22.4504 116.625 23.9475H106.222ZM130.036 10.8948H125.913V16.2633H121.978V19.5089H125.912V28.193C125.912 32.7079 128.137 34.9652 132.589 34.9649C133.206 34.9665 133.822 34.9255 134.433 34.8421C134.966 34.7708 135.494 34.6652 136.012 34.5261V31.3157C135.558 31.3859 135.142 31.4416 134.764 31.4826C134.386 31.5236 133.925 31.544 133.383 31.5438C132.16 31.5438 131.296 31.2514 130.792 30.6666C130.288 30.0818 130.036 29.1052 130.036 27.737V19.5089H136.012V16.2633H130.035L130.036 10.8948ZM153.453 16.2633V18.6146C152.759 17.7355 151.843 17.0277 150.785 16.5532C149.713 16.068 148.503 15.8253 147.154 15.8251C145.363 15.8251 143.778 16.2345 142.397 17.0532C141.016 17.8719 139.935 19.0002 139.153 20.4381C138.371 21.8768 137.98 23.5317 137.98 25.403C137.98 27.2634 138.365 28.9154 139.134 30.3591C139.903 31.8028 140.959 32.9373 142.302 33.7626C143.645 34.5872 145.187 34.9995 146.927 34.9995C148.338 34.9995 149.599 34.7392 150.71 34.2186C151.82 33.6981 152.734 32.9584 153.452 31.9996V34.561H157.5V16.2633H153.453ZM153.377 28.1579C152.935 29.1873 152.217 30.0061 151.221 30.6141C150.225 31.2222 149.09 31.5262 147.816 31.5262C146.089 31.5262 144.721 30.9766 143.712 29.8772C142.702 28.7779 142.198 27.2866 142.198 25.4035C142.198 23.5323 142.722 22.0469 143.768 20.9474C144.815 19.8478 146.22 19.2982 147.985 19.2986C149.234 19.2986 150.334 19.6 151.286 20.2029C152.238 20.8058 152.934 21.6275 153.375 22.668L153.377 28.1579Z" fill="#C4C4C4"/>
</svg>
