<svg width="142" height="40" viewBox="0 0 142 40" fill="none" xmlns="http://www.w3.org/2000/svg">
<g clip-path="url(#clip0_912_401)">
<path fill-rule="evenodd" clip-rule="evenodd" d="M24.54 0.0909349L2.40667 1.72561C0.621333 1.88027 0 3.04694 0 4.44561V28.7097C0 29.799 0.386667 30.731 1.32 31.9763L6.52267 38.7417C7.37733 39.831 8.15467 40.0643 9.78667 39.987L35.4893 38.431C37.6627 38.2763 38.2853 37.2643 38.2853 35.5537V8.25627C38.2853 7.37227 37.936 7.1176 36.908 6.36294C36.8488 6.32032 36.7897 6.27766 36.7307 6.23494L29.6667 1.2576C27.9573 0.0149349 27.2587 -0.142398 24.54 0.0909349ZM10.368 7.8096C8.26933 7.95094 7.79333 7.98294 6.60133 7.01361L3.57067 4.60294C3.26267 4.29094 3.41733 3.90161 4.19333 3.82427L25.4707 2.26961C27.2573 2.11361 28.188 2.73627 28.8867 3.28027L32.536 5.92427C32.692 6.00294 33.08 6.46827 32.6133 6.46827L10.64 7.79094L10.368 7.8096ZM7.92133 35.3203V12.1469C7.92133 11.1349 8.232 10.6683 9.16267 10.5896L34.4 9.11227C35.256 9.03494 35.6427 9.57894 35.6427 10.5896V33.6083C35.6427 34.6203 35.4867 35.4763 34.0893 35.5537L9.93867 36.9537C8.54133 37.031 7.92133 36.5657 7.92133 35.3203ZM31.7613 13.3897C31.916 14.0897 31.7613 14.7897 31.0613 14.8697L29.8973 15.1003V32.2097C28.8867 32.7537 27.956 33.0643 27.1787 33.0643C25.936 33.0643 25.6253 32.675 24.6947 31.5097L17.0827 19.5337V31.1203L19.4907 31.6657C19.4907 31.6657 19.4907 33.0657 17.548 33.0657L12.192 33.3763C12.036 33.0643 12.192 32.287 12.7347 32.1323L14.1333 31.7443V16.4243L12.192 16.267C12.036 15.567 12.424 14.5563 13.512 14.4777L19.2587 14.091L27.1787 26.2217V15.4897L25.16 15.2577C25.004 14.4003 25.6253 13.7777 26.4013 13.7017L31.7613 13.3897Z" fill="#C4C4C4"/>
</g>
<path d="M51.022 31.6539V16.2743H51.297L62.7449 31.6539H66.3494V9.0532H62.3415V24.4171H62.0665L50.6186 9.0532H47V31.652H51.024L51.022 31.6539ZM77.6769 32C82.9653 32 86.1826 28.648 86.1826 23.0872C86.1826 17.542 82.9493 14.1745 77.6769 14.1745C72.4226 14.1745 69.1733 17.5576 69.1733 23.0872C69.1733 28.648 72.3744 32 77.6769 32ZM77.6769 28.7413C74.8812 28.7413 73.2816 26.6745 73.2816 23.0872C73.2816 19.5155 74.8812 17.4331 77.6769 17.4331C80.4586 17.4331 82.0582 19.5155 82.0582 23.0872C82.0582 26.6745 80.4747 28.7413 77.6769 28.7413ZM89.8453 10.3228V14.6294H87.0496V17.7306H89.8453V27.0809C89.8453 30.4018 91.463 31.7336 95.5211 31.7336C96.2958 31.7336 97.0404 31.6559 97.6224 31.545V28.5061C97.1367 28.5527 96.8297 28.5838 96.2637 28.5838C94.5838 28.5838 93.8392 27.8333 93.8392 26.1418V17.7306H97.6224V14.6294H93.8392V10.3208H89.8453V10.3228ZM100.025 31.6539H104.019V14.5186H100.025V31.6539ZM102.014 11.6857C103.338 11.6857 104.406 10.6494 104.406 9.35068C104.406 8.04993 103.34 7 102.014 7C100.705 7 99.6214 8.04993 99.6214 9.35068C99.6214 10.6494 100.705 11.6838 102.014 11.6838V11.6857ZM114.975 32C120.261 32 123.479 28.648 123.479 23.0872C123.479 17.542 120.245 14.1745 114.975 14.1745C109.719 14.1745 106.469 17.5576 106.469 23.0872C106.469 28.648 109.67 32 114.975 32ZM114.975 28.7413C112.177 28.7413 110.576 26.6745 110.576 23.0872C110.576 19.5155 112.177 17.4331 114.975 17.4331C117.755 17.4331 119.356 19.5155 119.356 23.0872C119.356 26.6745 117.771 28.7413 114.975 28.7413ZM125.865 31.6539H129.875V21.6776C129.875 19.1558 131.38 17.5576 133.77 17.5576C136.213 17.5576 137.343 18.8739 137.343 21.489V31.6539H141.355V20.5654C141.355 16.4765 139.203 14.1745 135.26 14.1745C132.622 14.1745 130.844 15.3488 130.003 17.2601H129.728V14.5186H125.865V31.6539Z" fill="#C4C4C4"/>
<defs>
<clipPath id="clip0_912_401">
<rect width="116" height="40" fill="white"/>
</clipPath>
</defs>
</svg>
