<svg width="141" height="40" viewBox="0 0 141 40" fill="none" xmlns="http://www.w3.org/2000/svg">
<g clip-path="url(#clip0_912_445)">
<path d="M30.0667 7.25716C29.9237 7.24516 27.1228 7.2026 27.1228 7.2026C27.1228 7.2026 24.7804 4.92782 24.5489 4.69642C24.4627 4.61018 24.3459 4.56543 24.2236 4.54688L24.2247 39.3442L34.7221 36.7354C34.7221 36.7354 30.4389 7.77676 30.4116 7.57807C30.3843 7.37939 30.2097 7.26916 30.0667 7.25716Z" fill="#C4C4C4"/>
<path d="M48.5458 22.2036C47.3386 21.5486 46.7182 20.9964 46.7182 20.2375C46.7182 19.2718 47.58 18.6514 48.9258 18.6514C50.4923 18.6514 51.8911 19.3064 51.8911 19.3064L52.9943 15.9264C52.9943 15.9264 51.9799 15.1328 48.994 15.1328C44.8388 15.1328 41.959 17.5124 41.959 20.8578C41.959 22.7546 43.3036 24.2032 45.0975 25.2371C46.5461 26.0642 47.0636 26.651 47.0636 27.5128C47.0636 28.4093 46.3394 29.1335 44.9947 29.1335C42.9907 29.1335 41.0982 28.0985 41.0982 28.0985L39.9258 31.4785C39.9258 31.4785 41.6742 32.651 44.6157 32.651C48.8922 32.651 51.9615 30.5474 51.9615 26.7539C51.9604 24.7207 50.409 23.2721 48.5458 22.2036Z" fill="#C4C4C4"/>
<path d="M65.582 15.1009C63.4783 15.1009 61.823 16.1013 60.5476 17.6181L60.4783 17.5834L62.3058 8.03125H57.5465L52.9258 32.3431H57.6851L59.2712 24.0327C59.8915 20.8941 61.5122 18.9638 63.0301 18.9638C64.0986 18.9638 64.5133 19.688 64.5133 20.7231C64.5133 21.3781 64.444 22.1716 64.3065 22.8267L62.5137 32.3442H67.2732L69.1348 22.5159C69.342 21.4809 69.4804 20.2402 69.4804 19.412C69.4784 16.7216 68.0647 15.1009 65.582 15.1009Z" fill="#C4C4C4"/>
<path d="M80.2381 15.1016C74.5128 15.1016 70.7207 20.2745 70.7207 26.033C70.7207 29.7227 72.9961 32.6881 77.2728 32.6881C82.8938 32.6881 86.6873 27.6538 86.6873 21.7566C86.6873 18.343 84.6866 15.1016 80.2381 15.1016ZM77.8932 29.0341C76.2722 29.0341 75.5823 27.6548 75.5823 25.9302C75.5823 23.2062 76.9968 18.7577 79.583 18.7577C81.2728 18.7577 81.8237 20.2062 81.8237 21.6202C81.8237 24.5509 80.4112 29.0341 77.8932 29.0341Z" fill="#C4C4C4"/>
<path d="M98.8606 15.1016C95.6482 15.1016 93.8252 17.9294 93.8252 17.9294H93.757L94.0331 15.3776H89.8259C89.6193 17.1023 89.239 19.7223 88.8606 21.6884L85.5498 39.1027H90.3091L91.6187 32.0677H91.7229C91.7229 32.0677 92.6993 32.6881 94.5164 32.6881C100.103 32.6881 103.758 26.9641 103.758 21.1698C103.758 17.9641 102.343 15.1016 98.8606 15.1016ZM94.3085 29.1023C93.0731 29.1023 92.3419 28.4126 92.3419 28.4126L93.1354 23.9641C93.6875 20.9987 95.239 19.0326 96.8947 19.0326C98.3433 19.0326 98.7911 20.3773 98.7911 21.6538C98.7911 24.723 96.9636 29.1023 94.3085 29.1023Z" fill="#C4C4C4"/>
<path d="M110.551 8.27344C109.034 8.27344 107.827 9.48058 107.827 11.032C107.827 12.446 108.724 13.4117 110.068 13.4117H110.137C111.621 13.4117 112.896 12.4113 112.931 10.6531C112.931 9.27377 112 8.27344 110.551 8.27344Z" fill="#C4C4C4"/>
<path d="M103.896 32.3465H108.654L111.896 15.4844H107.102L103.896 32.3465Z" fill="#C4C4C4"/>
<path d="M124.001 15.4468H120.69L120.862 14.6532C121.138 13.0325 122.104 11.5839 123.69 11.5839C124.537 11.5839 125.207 11.8253 125.207 11.8253L126.138 8.10107C126.138 8.10107 125.31 7.6875 123.551 7.6875C121.861 7.6875 120.173 8.17032 118.896 9.27353C117.275 10.6529 116.516 12.6525 116.137 14.6532L116 15.4468H113.792L113.102 19.0336H115.31L112.793 32.3447H117.552L120.07 19.0336H123.346L124.001 15.4468Z" fill="#C4C4C4"/>
<path d="M135.449 15.4855C135.449 15.4855 132.474 22.9806 131.139 27.0719H131.069C130.979 25.7543 129.897 15.4855 129.897 15.4855H124.896L127.76 30.9683C127.829 31.3126 127.794 31.5205 127.656 31.7619C127.103 32.8305 126.173 33.8655 125.069 34.6244C124.173 35.2794 123.173 35.693 122.38 35.969L123.69 40.004C124.656 39.7973 126.655 39.0037 128.345 37.4176C130.518 35.3833 132.518 32.2448 134.586 27.9683L140.415 15.4844H135.449V15.4855Z" fill="#C4C4C4"/>
</g>
<path fill-rule="evenodd" clip-rule="evenodd" d="M30.0654 7.25981C30.21 7.26762 30.3828 7.377 30.4102 7.58012L34.7207 36.7364L24.2227 39.3457L0 35.1582L2.99707 12.0176C3.07715 11.4395 3.12402 11.1739 3.33594 10.9942C3.50781 10.8457 3.78809 10.752 4.28125 10.5957L8.03418 9.43168C8.26758 7.75981 9.0918 5.60356 10.1738 3.877C11.7129 1.43168 13.6113 0.0566834 15.5176 0.00199589C16.5049 -0.0292541 17.3291 0.306683 17.9727 0.994183L18.1055 1.15043L18.4121 1.13481C19.8936 1.13481 21.1152 1.97856 21.9482 3.5645C22.207 4.0645 22.3887 4.54887 22.5117 4.95512L23.6885 4.58793C23.8643 4.53325 24.3164 4.46293 24.5479 4.69731L27.1211 7.20512L28.8447 7.23637L30.0654 7.25981ZM19.4199 5.90825L21.2988 5.33012C20.999 4.35356 20.2871 2.71293 18.8408 2.4395C19.291 3.60356 19.4053 4.94731 19.4199 5.90825ZM14.1084 7.55668L18.1523 6.29887C18.165 5.252 18.0508 3.6895 17.5234 2.58793C16.9629 2.82231 16.4893 3.22856 16.1504 3.58793C15.7207 4.04887 15.3281 4.627 14.9922 5.26762C14.6182 5.97856 14.3145 6.76762 14.1084 7.55668ZM16.042 1.30668C15.8896 1.28325 15.7275 1.26762 15.5557 1.27543C12.6143 1.35356 10.0479 5.95512 9.3916 9.00981L12.7129 7.98637C13.083 6.04106 14.0107 4.02543 15.2217 2.72856C15.6885 2.22075 16.1865 1.83793 16.7021 1.57231C16.5039 1.4395 16.2852 1.35356 16.042 1.30668ZM17.1855 17.2207L18.4043 12.6582C18.4043 12.6582 18.0205 12.4707 17.2646 12.3457C16.7686 12.2676 16.1123 12.2129 15.2988 12.2676C9.9668 12.6036 7.5498 16.3301 7.78223 20.0098C7.9375 22.4707 9.38672 23.502 10.6553 24.4004C11.6445 25.0957 12.5244 25.7207 12.5977 26.8848C12.6377 27.5332 12.2383 28.4395 11.1201 28.5098C9.40918 28.6192 7.27051 27.002 7.27051 27.002L6.45312 30.4786C6.45312 30.4786 8.57715 32.7598 12.4355 32.5176C15.6504 32.3145 17.8818 29.7364 17.6445 25.9786C17.4629 23.0957 15.4307 21.7911 13.8223 20.7598C12.7695 20.0879 11.8984 19.5254 11.8477 18.7129C11.8232 18.3457 11.8486 16.8536 14.2129 16.7051C15.8252 16.6036 17.1855 17.2207 17.1855 17.2207Z" fill="#C4C4C4"/>
<defs>
<clipPath id="clip0_912_445">
<rect width="140.984" height="40" fill="white"/>
</clipPath>
</defs>
</svg>
