<svg width="196" height="40" viewBox="0 0 196 40" fill="none" xmlns="http://www.w3.org/2000/svg">
<g clip-path="url(#clip0_912_301)">
<path d="M73.1846 10.7692L68.8923 27.2615L64.6 10.7692H60.2769L61.2769 14.3077L57.5077 27.8154L53.3846 10.7692H49.2308L55.0769 32.3077H59.6308L63.1385 20.7846L66.4154 32.3077H70.9538L77.1077 10.7692H73.1846ZM116.862 17.0154C115.923 16.7982 114.964 16.6795 114 16.6615C108.769 16.6615 105.908 20.1538 105.908 25.2769C105.908 30.3692 108.769 32.6923 112.138 32.6923C113.93 32.6338 115.655 32.0031 117.062 30.8923V32.3077H120.646V10.7692H116.862V17.0154ZM116.862 27.9077C115.631 29.0308 114.477 29.6462 113.262 29.6462C111.169 29.6462 109.831 28.2615 109.831 25.0154C109.831 21.5077 111.492 19.6769 114.385 19.6769C115.231 19.6769 116.077 19.8462 116.846 20.1538V27.9077H116.862ZM98.7692 19.5385H98.6308V17.0154H95.0923V32.3077H98.8923V23.2C100.077 20.9538 101.523 20.2154 103.938 20.2154H104.323V16.9231C103.981 16.8852 103.637 16.8648 103.292 16.8615C101.231 16.8615 99.8154 17.6615 98.7692 19.5538V19.5385ZM84.3385 16.6308C79.1077 16.6308 76.6462 20.0154 76.6462 24.6769C76.6462 29.3231 79.1077 32.6769 84.3385 32.6769C89.5692 32.6769 92.0615 29.3231 92.0615 24.6769C92.0615 20.0154 89.5385 16.6308 84.3231 16.6308H84.3385ZM84.3385 29.6154C81.8769 29.6154 80.5538 28.0154 80.5538 24.6769C80.5538 21.3231 81.8769 19.7231 84.3539 19.7231C86.8154 19.7231 88.1077 21.3231 88.1077 24.6769C88.1077 28.0154 86.8 29.6154 84.3231 29.6154H84.3385ZM146.354 19.5231H146.231V17.0154H142.677V32.3077H146.462V23.2C147.646 20.9538 149.092 20.2154 151.508 20.2154H151.892V16.9231C151.55 16.8852 151.206 16.8648 150.862 16.8615C148.815 16.8615 147.4 17.6615 146.338 19.5538H146.354V19.5231ZM132.385 10.7692H125.338V32.3077H129.4V24.8154H132.369C136.969 24.8154 140.308 22.3385 140.308 17.7077C140.308 13.0923 136.969 10.7692 132.369 10.7692H132.385ZM132.415 21.6615H129.4V13.9538H132.4C134.862 13.9538 136.062 15.3077 136.062 17.7077C136.062 20.1231 134.938 21.6615 132.4 21.6615H132.415ZM187.831 21.3077C187.831 20.1538 189.092 19.7077 190.446 19.7077C191.877 19.7231 193.308 19.9538 194.677 20.3692V17.2308C193.202 16.8138 191.672 16.6169 190.138 16.6462C186.477 16.6462 183.908 18.3846 183.908 21.2154C183.908 26.7077 191.477 25.2923 191.477 27.9692C191.477 29.2769 190.292 29.6308 188.554 29.6308C187.323 29.6308 185.369 29.1692 183.954 28.6615V31.7846C185.374 32.3523 186.886 32.6598 188.415 32.6923C191.985 32.6923 195.385 31.6308 195.385 27.8154C195.431 22.5077 187.846 23.8769 187.846 21.3077H187.831ZM160.908 16.6462C156.015 16.6462 153.477 20.4462 153.477 24.5846C153.477 30.2769 156.462 32.6923 161.323 32.6923C163.229 32.6963 165.125 32.4005 166.938 31.8154V28.6615C165.354 29.2462 163.908 29.6 162.369 29.6C159.538 29.6 157.646 28.8308 157.554 25.4923H167.338C167.431 24.7385 167.477 23.9846 167.462 23.2462C167.462 20.0154 165.754 16.6462 160.892 16.6462H160.908ZM157.585 22.9846C157.815 20.8615 158.969 19.5077 160.862 19.5077C162.892 19.5077 163.508 21.1231 163.508 22.9846H157.585ZM174.046 21.3077C174.046 20.1538 175.292 19.7077 176.646 19.7077C178.077 19.7231 179.508 19.9538 180.877 20.3692V17.2308C179.406 16.8154 177.882 16.6185 176.354 16.6462C172.692 16.6462 170.108 18.3846 170.108 21.2154C170.108 26.7077 177.692 25.2923 177.692 27.9692C177.692 29.2769 176.492 29.6308 174.769 29.6308C173.538 29.6308 171.585 29.1692 170.154 28.6615V31.7846C171.574 32.3526 173.086 32.6602 174.615 32.6923C178.185 32.6923 181.6 31.6308 181.6 27.8154C181.631 22.5077 174.046 23.8769 174.046 21.3077ZM2.64615 20C2.64615 26.8769 6.64615 32.8 12.4308 35.6154L4.15385 12.9385C3.15997 15.16 2.6462 17.5663 2.64615 20ZM20 37.3538C22.0154 37.3538 23.9538 37 25.7692 36.3692L25.6462 36.1385L20.3077 21.5231L15.1077 36.6462C16.6462 37.1077 18.2923 37.3538 20 37.3538ZM22.3846 11.8615L28.6615 30.5231L30.4 24.7385C31.1385 22.3385 31.7077 20.6154 31.7077 19.1231C31.7077 16.9692 30.9385 15.4923 30.2923 14.3538C29.4 12.9077 28.5846 11.6923 28.5846 10.2769C28.5846 8.67692 29.7846 7.2 31.5077 7.2H31.7231C28.5254 4.26448 24.3408 2.63892 20 2.64615C17.1258 2.64562 14.2967 3.35958 11.7669 4.7238C9.23722 6.08803 7.08629 8.05974 5.50769 10.4615L6.61539 10.4923C8.43077 10.4923 11.2308 10.2615 11.2308 10.2615C12.1846 10.2154 12.2923 11.5846 11.3538 11.6923C11.3538 11.6923 10.4154 11.8154 9.35385 11.8615L15.6923 30.6615L19.4923 19.2769L16.7846 11.8615C16.1782 11.8281 15.5728 11.7768 14.9692 11.7077C14.0308 11.6462 14.1385 10.2154 15.0769 10.2615C15.0769 10.2615 17.9385 10.4923 19.6462 10.4923C21.4615 10.4923 24.2615 10.2615 24.2615 10.2615C25.2 10.2154 25.3231 11.5846 24.3846 11.6923C24.3846 11.6923 23.4462 11.8 22.3846 11.8615ZM28.7231 35C31.3483 33.4735 33.5271 31.2848 35.0417 28.6526C36.5562 26.0205 37.3535 23.0368 37.3538 20C37.3538 16.9846 36.5846 14.1538 35.2308 11.6769C35.5057 14.402 35.0931 17.1525 34.0308 19.6769L28.7231 35ZM20 40C14.6957 40 9.60858 37.8929 5.85786 34.1422C2.10714 30.3914 0 25.3043 0 20C0 14.6957 2.10714 9.60858 5.85786 5.85786C9.60858 2.10714 14.6957 0 20 0C25.3043 0 30.3914 2.10714 34.1422 5.85786C37.8929 9.60858 40 14.6957 40 20C40 25.3043 37.8929 30.3914 34.1422 34.1422C30.3914 37.8929 25.3043 40 20 40Z" fill="#C4C4C4"/>
</g>
<defs>
<clipPath id="clip0_912_301">
<rect width="195.385" height="40" fill="white"/>
</clipPath>
</defs>
</svg>
